<svg width="160" height="35" viewBox="0 0 160 35" fill="none" xmlns="http://www.w3.org/2000/svg">
<g clip-path="url(#clip0_575_4)">
<path d="M15.7144 2.65262C15.7144 2.40635 15.6146 2.17017 15.437 1.99602C15.2593 1.82188 15.0183 1.72405 14.7671 1.72405C14.5158 1.72405 14.2748 1.82188 14.0972 1.99602C13.9195 2.17017 13.8197 2.40635 13.8197 2.65262V8.53358C13.8197 8.69776 13.7532 8.85522 13.6347 8.97131C13.5163 9.0874 13.3556 9.15262 13.1881 9.15262C13.0206 9.15262 12.86 9.0874 12.7415 8.97131C12.6231 8.85522 12.5565 8.69776 12.5565 8.53358V2.65262C12.5565 2.40635 12.4567 2.17017 12.2791 1.99602C12.1014 1.82188 11.8604 1.72405 11.6092 1.72405C11.3579 1.72405 11.1169 1.82188 10.9393 1.99602C10.7616 2.17017 10.6618 2.40635 10.6618 2.65262V8.53358C10.6618 8.69776 10.5953 8.85522 10.4768 8.97131C10.3584 9.0874 10.1977 9.15262 10.0302 9.15262C9.86272 9.15262 9.70207 9.0874 9.58363 8.97131C9.46519 8.85522 9.39864 8.69776 9.39864 8.53358V2.65262C9.39864 2.40635 9.29883 2.17017 9.12117 1.99602C8.9435 1.82188 8.70253 1.72405 8.45128 1.72405C8.20002 1.72405 7.95905 1.82188 7.78138 1.99602C7.60372 2.17017 7.50391 2.40635 7.50391 2.65262V8.22405C7.50391 8.30267 7.51717 8.3782 7.53612 8.45124C7.51575 8.58093 7.50499 8.71189 7.50391 8.8431C7.50391 10.2768 8.60917 12.5308 10.0302 12.831V22.4621C10.0302 22.8726 10.1966 23.2662 10.4927 23.5565C10.7888 23.8467 11.1904 24.0098 11.6092 24.0098C12.0279 24.0098 12.4295 23.8467 12.7257 23.5565C13.0218 23.2662 13.1881 22.8726 13.1881 22.4621V12.831C14.6092 12.5308 15.7144 10.2768 15.7144 8.8431C15.7144 8.70939 15.7012 8.57939 15.6822 8.45124C15.7012 8.3782 15.7144 8.30267 15.7144 8.22405V2.65262ZM21.0829 1.72405C21.0172 1.72405 20.954 1.73581 20.8896 1.74324C20.8492 1.73705 20.8094 1.72405 20.7671 1.72405C19.3719 1.72405 17.6092 5.11458 17.6092 8.53358C17.6092 11.4171 18.4144 13.8332 19.5039 14.521V22.4621C19.5039 22.8726 19.6703 23.2662 19.9664 23.5565C20.2625 23.8467 20.6641 24.0098 21.0829 24.0098C21.5016 24.0098 21.9032 23.8467 22.1993 23.5565C22.4955 23.2662 22.6618 22.8726 22.6618 22.4621V3.27167C22.6618 2.86122 22.4955 2.46757 22.1993 2.17734C21.9032 1.8871 21.5016 1.72405 21.0829 1.72405Z" fill="#5C5C5C"/>
</g>
<path d="M1.30469 2.19336V27.7148H158.944" stroke="black"/>
<path d="M46.8955 21.498C46.0322 21.498 45.6006 21.2653 45.6006 20.7998V9.10742L40.7764 20.9521C40.6325 21.3161 40.1755 21.498 39.4053 21.498C38.6351 21.498 38.1696 21.3203 38.0088 20.9648L32.5498 8.80273V21.0029C32.5498 21.333 32.2155 21.498 31.5469 21.498C30.8783 21.498 30.5439 21.333 30.5439 21.0029V4.37207C30.5439 3.89811 31.0391 3.66113 32.0293 3.66113C32.7656 3.66113 33.2142 3.83887 33.375 4.19434L39.7354 18.4131L45.5498 4.19434C45.7021 3.83887 46.1465 3.66113 46.8828 3.66113C47.7461 3.66113 48.1777 3.89811 48.1777 4.37207V20.7998C48.1777 21.2653 47.7503 21.498 46.8955 21.498ZM62.917 20.7744C62.917 22.6872 62.2949 24.0794 61.0508 24.9512C59.8151 25.8314 58.3171 26.2715 56.5566 26.2715C55.541 26.2715 54.4788 26.098 53.3701 25.751C52.2699 25.404 51.4193 24.7988 50.8184 23.9355C50.7591 23.8509 50.7295 23.7663 50.7295 23.6816C50.7295 23.2161 51.1569 22.9834 52.0117 22.9834C52.6126 22.9834 53.0146 23.1315 53.2178 23.4277C53.8695 24.3757 54.974 24.8496 56.5312 24.8496C59.0703 24.8496 60.3398 23.4447 60.3398 20.6348V19.9492C59.5104 20.9395 58.3382 21.4346 56.8232 21.4346C52.7607 21.4346 50.7295 19.5303 50.7295 15.7217V9.14551C50.7295 8.67155 51.1611 8.43457 52.0244 8.43457C52.8792 8.43457 53.3066 8.67155 53.3066 9.14551V15.7217C53.3066 16.7458 53.5986 17.7191 54.1826 18.6416C54.7666 19.5641 55.6468 20.0254 56.8232 20.0254C57.9574 20.0254 58.8249 19.5641 59.4258 18.6416C60.0352 17.7191 60.3398 16.7585 60.3398 15.7598V9.14551C60.3398 8.67155 60.7673 8.43457 61.6221 8.43457C62.4854 8.43457 62.917 8.67155 62.917 9.14551V20.7744ZM84.7783 21.498C84.0758 21.498 83.6019 21.333 83.3564 21.0029L77.1611 12.7383L74.3682 15.29V20.8506C74.3682 21.2822 73.9365 21.498 73.0732 21.498C72.2184 21.498 71.791 21.2822 71.791 20.8506V4.30859C71.791 3.87695 72.2184 3.66113 73.0732 3.66113C73.9365 3.66113 74.3682 3.87695 74.3682 4.30859V12.9033L84.1436 3.95312C84.3467 3.75846 84.6725 3.66113 85.1211 3.66113C85.3158 3.66113 85.4977 3.68229 85.667 3.72461C86.0817 3.82617 86.2891 3.99967 86.2891 4.24512C86.2891 4.32975 86.2383 4.41862 86.1367 4.51172L79.0908 10.9736L86.2129 20.4697C86.2806 20.5628 86.3145 20.6517 86.3145 20.7363C86.3145 21.0833 85.9759 21.3203 85.2988 21.4473C85.0957 21.4811 84.9222 21.498 84.7783 21.498ZM88.8916 7.38086C88.0199 7.38086 87.584 6.94922 87.584 6.08594C87.584 5.21419 88.0199 4.77832 88.8916 4.77832C89.7549 4.77832 90.1865 5.21419 90.1865 6.08594C90.1865 6.94922 89.7549 7.38086 88.8916 7.38086ZM88.8916 21.498C88.0283 21.498 87.5967 21.2611 87.5967 20.7871V9.20898C87.5967 8.73503 88.0283 8.49805 88.8916 8.49805C89.7464 8.49805 90.1738 8.73503 90.1738 9.20898V20.7871C90.1738 21.2611 89.7464 21.498 88.8916 21.498ZM98.4385 21.498C95.5863 21.4811 94.1602 20.3132 94.1602 17.9941V9.91992H92.7383C91.8835 9.91992 91.4561 9.68294 91.4561 9.20898C91.4561 8.73503 91.8835 8.49805 92.7383 8.49805H94.1602V4.37207C94.1602 3.89811 94.5918 3.66113 95.4551 3.66113C96.3184 3.66113 96.75 3.89811 96.75 4.37207V8.49805H98.8828C99.7461 8.49805 100.178 8.73503 100.178 9.20898C100.178 9.68294 99.7461 9.91992 98.8828 9.91992H96.75V17.9941C96.75 19.3822 97.3171 20.0762 98.4512 20.0762C98.6882 20.0762 98.9124 20.055 99.124 20.0127C99.3441 19.9619 99.5641 19.9365 99.7842 19.9365C100.673 19.9365 101.117 20.182 101.117 20.6729C101.117 21.0029 100.762 21.2314 100.051 21.3584C99.4922 21.4515 98.9548 21.498 98.4385 21.498ZM108.214 21.498C103.686 21.498 101.422 19.3483 101.422 15.0488C101.422 13.0007 102.078 11.3968 103.39 10.2373C104.701 9.0778 106.352 8.49805 108.341 8.49805C109.593 8.49805 110.85 8.81966 112.111 9.46289C113.381 10.1061 114.134 11.0921 114.371 12.4209C114.388 12.5225 114.396 12.5902 114.396 12.624C114.396 13.0895 113.969 13.3223 113.114 13.3223C112.319 13.3223 111.891 13.1064 111.832 12.6748C111.57 10.8298 110.402 9.90723 108.328 9.90723C106.889 9.90723 105.806 10.4447 105.078 11.5195C104.35 12.5859 103.986 13.7708 103.986 15.0742C103.995 16.3438 104.35 17.499 105.053 18.54C105.755 19.5726 106.826 20.0889 108.265 20.0889C110.313 20.0889 111.51 19.1621 111.857 17.3086C111.925 16.8854 112.353 16.6738 113.14 16.6738C114.003 16.6738 114.435 16.9066 114.435 17.3721C114.435 17.3382 114.418 17.4229 114.384 17.626C114.079 18.9378 113.288 19.9111 112.01 20.5459C110.732 21.1807 109.466 21.498 108.214 21.498ZM127.231 21.498C126.377 21.498 125.949 21.2611 125.949 20.7871V14.2109C125.949 13.2207 125.678 12.2601 125.137 11.3291C124.595 10.3981 123.74 9.93262 122.572 9.93262C121.32 9.93262 120.397 10.4404 119.805 11.4561C119.212 12.4632 118.916 13.4958 118.916 14.5537V20.7871C118.916 21.2611 118.489 21.498 117.634 21.498C116.771 21.498 116.339 21.2611 116.339 20.7871V4.37207C116.339 3.89811 116.771 3.66113 117.634 3.66113C118.489 3.66113 118.916 3.89811 118.916 4.37207V9.9834C119.847 8.99316 121.117 8.49805 122.725 8.49805C124.417 8.49805 125.805 9.03971 126.889 10.123C127.98 11.1979 128.526 12.5563 128.526 14.1982V20.7871C128.526 21.2611 128.095 21.498 127.231 21.498ZM136.639 21.498C134.717 21.498 133.097 20.9268 131.776 19.7842C130.456 18.6331 129.796 17.0632 129.796 15.0742C129.796 13.0514 130.465 11.4518 131.802 10.2754C133.147 9.09049 134.798 8.49805 136.753 8.49805C138.615 8.49805 140.219 8.98893 141.564 9.9707C142.91 10.944 143.583 12.404 143.583 14.3506C143.583 14.8923 143.156 15.1631 142.301 15.1631H132.36C132.377 16.4157 132.758 17.5498 133.503 18.5654C134.248 19.5811 135.297 20.0889 136.651 20.0889C137.625 20.0889 138.526 19.8265 139.355 19.3018C140.227 18.7432 140.701 18.083 140.777 17.3213C140.82 16.8812 141.239 16.6611 142.034 16.6611C142.906 16.6611 143.342 16.8939 143.342 17.3594C143.342 17.5964 143.27 17.8841 143.126 18.2227C142.813 18.9674 142.216 19.6276 141.336 20.2031C140.016 21.0664 138.45 21.498 136.639 21.498ZM140.98 13.7539C140.71 11.1895 139.3 9.90723 136.753 9.90723C134.485 9.90723 133.071 11.1895 132.513 13.7539H140.98ZM156.38 21.498C155.525 21.498 155.098 21.2611 155.098 20.7871V14.2109C155.098 13.2207 154.827 12.2601 154.285 11.3291C153.743 10.3981 152.889 9.93262 151.721 9.93262C150.468 9.93262 149.546 10.4404 148.953 11.4561C148.361 12.4632 148.064 13.4958 148.064 14.5537V20.7871C148.064 21.2611 147.637 21.498 146.782 21.498C145.919 21.498 145.487 21.2611 145.487 20.7871V9.22168C145.487 8.74772 145.919 8.51074 146.782 8.51074C147.637 8.51074 148.064 8.74772 148.064 9.22168V9.9834C148.995 8.99316 150.265 8.49805 151.873 8.49805C153.566 8.49805 154.954 9.03971 156.037 10.123C157.129 11.1979 157.675 12.5563 157.675 14.1982V20.7871C157.675 21.2611 157.243 21.498 156.38 21.498Z" fill="black"/>
<defs>
<clipPath id="clip0_575_4">
<rect width="24" height="24" fill="white" transform="translate(1 0.867188)"/>
</clipPath>
</defs>
</svg>
