<svg width="159" height="35" viewBox="0 0 159 35" fill="none" xmlns="http://www.w3.org/2000/svg">
<g clip-path="url(#clip0_575_4)">
<path d="M14.7144 6.81669C14.7144 6.57041 14.6146 6.33423 14.437 6.16009C14.2593 5.98595 14.0183 5.88811 13.7671 5.88811C13.5158 5.88811 13.2748 5.98595 13.0972 6.16009C12.9195 6.33423 12.8197 6.57041 12.8197 6.81669V12.6976C12.8197 12.8618 12.7532 13.0193 12.6347 13.1354C12.5163 13.2515 12.3556 13.3167 12.1881 13.3167C12.0206 13.3167 11.86 13.2515 11.7415 13.1354C11.6231 13.0193 11.5565 12.8618 11.5565 12.6976V6.81669C11.5565 6.57041 11.4567 6.33423 11.2791 6.16009C11.1014 5.98595 10.8604 5.88811 10.6092 5.88811C10.3579 5.88811 10.1169 5.98595 9.93928 6.16009C9.76161 6.33423 9.6618 6.57041 9.6618 6.81669V12.6976C9.6618 12.8618 9.59526 13.0193 9.47682 13.1354C9.35837 13.2515 9.19773 13.3167 9.03022 13.3167C8.86272 13.3167 8.70207 13.2515 8.58363 13.1354C8.46519 13.0193 8.39864 12.8618 8.39864 12.6976V6.81669C8.39864 6.57041 8.29883 6.33423 8.12117 6.16009C7.9435 5.98595 7.70253 5.88811 7.45128 5.88811C7.20002 5.88811 6.95905 5.98595 6.78138 6.16009C6.60372 6.33423 6.50391 6.57041 6.50391 6.81669V12.3881C6.50391 12.4667 6.51717 12.5423 6.53612 12.6153C6.51575 12.745 6.50499 12.876 6.50391 13.0072C6.50391 14.4409 7.60917 16.6948 9.03022 16.9951V26.6262C9.03022 27.0367 9.19658 27.4303 9.49269 27.7205C9.7888 28.0108 10.1904 28.1738 10.6092 28.1738C11.0279 28.1738 11.4295 28.0108 11.7257 27.7205C12.0218 27.4303 12.1881 27.0367 12.1881 26.6262V16.9951C13.6092 16.6948 14.7144 14.4409 14.7144 13.0072C14.7144 12.8734 14.7012 12.7434 14.6822 12.6153C14.7012 12.5423 14.7144 12.4667 14.7144 12.3881V6.81669ZM20.0829 5.88811C20.0172 5.88811 19.954 5.89988 19.8896 5.9073C19.8492 5.90111 19.8094 5.88811 19.7671 5.88811C18.3719 5.88811 16.6092 9.27864 16.6092 12.6976C16.6092 15.5812 17.4144 17.9973 18.5039 18.6851V26.6262C18.5039 27.0367 18.6703 27.4303 18.9664 27.7205C19.2625 28.0108 19.6641 28.1738 20.0829 28.1738C20.5016 28.1738 20.9032 28.0108 21.1993 27.7205C21.4955 27.4303 21.6618 27.0367 21.6618 26.6262V7.43573C21.6618 7.02528 21.4955 6.63164 21.1993 6.3414C20.9032 6.05117 20.5016 5.88811 20.0829 5.88811Z" fill="#6CB202"/>
</g>
<path d="M30.4072 26.0312V9.05762H33.9746L38.748 20.6738L43.3564 9.05762H46.6826V26.0312H43.6104V12.3838L37.8721 26.6533L31.8672 12.3838V26.0312H30.4072ZM53.4111 25.9805L49.0186 14.8975H51.6211L54.7188 22.7051L57.9688 14.8975H59.1113L52.6875 30.5508H51.4688L53.4111 25.9805ZM72.0225 17.5254L78.2939 9.05762H80.2363L74.9424 16.332L80.7568 26.0312H77.0371L72.0225 17.5254ZM68.6963 26.0312V9.05762H71.8447V26.0312H68.6963ZM82.1406 11.7109C82.1406 11.3132 82.2803 10.9746 82.5596 10.6953C82.8473 10.416 83.1943 10.2764 83.6006 10.2764C83.9899 10.2764 84.3242 10.416 84.6035 10.6953C84.8828 10.9661 85.0225 11.3047 85.0225 11.7109C85.0225 12.1003 84.8828 12.4346 84.6035 12.7139C84.3327 12.9932 83.9984 13.1328 83.6006 13.1328C83.1943 13.1328 82.8473 12.9932 82.5596 12.7139C82.2803 12.4346 82.1406 12.1003 82.1406 11.7109ZM82.3438 14.8975H84.8193V26.0312H82.3438V14.8975ZM89.6943 26.0312V15.8623H87.3203V14.8975H94.5312V15.8623H92.1572V26.0312H89.6943ZM105.919 23.5811C105.445 24.4782 104.823 25.1722 104.053 25.6631C103.283 26.154 102.428 26.3994 101.488 26.3994C99.9648 26.3994 98.6868 25.8366 97.6543 24.7109C96.6217 23.5768 96.1055 22.1465 96.1055 20.4199C96.1055 18.778 96.626 17.3942 97.667 16.2686C98.7165 15.1344 100.011 14.5674 101.552 14.5674C102.534 14.5674 103.384 14.7832 104.104 15.2148C104.831 15.638 105.382 16.2516 105.754 17.0557L104.827 17.5508C104.497 16.8568 104.095 16.3405 103.621 16.002C103.156 15.6549 102.601 15.4814 101.958 15.4814C100.909 15.4814 100.104 15.9046 99.5459 16.751C98.9873 17.5973 98.708 18.8288 98.708 20.4453C98.708 21.918 99 23.1113 99.584 24.0254C100.176 24.931 100.934 25.3838 101.856 25.3838C102.508 25.3838 103.101 25.1849 103.634 24.7871C104.175 24.3809 104.641 23.7884 105.03 23.0098L105.919 23.5811ZM110.54 26.0312H108.064V7.85156H110.54V19.4551H114.755V14.8975H117.218V26.0312H114.755V20.4199H110.54V26.0312ZM120.709 16.9033C120.709 16.0739 120.84 15.5322 121.103 15.2783C121.373 15.0244 121.936 14.8975 122.791 14.8975H128.098V15.8623H124.302C123.853 15.8623 123.553 15.9258 123.4 16.0527C123.257 16.1797 123.185 16.4124 123.185 16.751V19.5566H127.209V20.6484H123.185V24.1904C123.185 24.529 123.261 24.7617 123.413 24.8887C123.565 25.0072 123.921 25.0664 124.479 25.0664H128.225V26.0312H122.397C121.771 26.0312 121.331 25.9001 121.077 25.6377C120.832 25.3753 120.709 24.8379 120.709 24.0254V16.9033ZM131.932 26.0312H130.865V16.8018C130.865 16.0146 130.992 15.4476 131.246 15.1006C131.508 14.7451 131.919 14.5674 132.478 14.5674C132.926 14.5674 133.349 14.724 133.747 15.0371C134.145 15.3418 134.521 15.8073 134.877 16.4336L137.784 21.6133C137.793 21.6302 137.81 21.6471 137.835 21.6641C137.869 21.681 137.903 21.6895 137.937 21.6895C138.004 21.6895 138.051 21.6683 138.076 21.626C138.11 21.5837 138.127 21.499 138.127 21.3721V14.8975H139.193V25.0918C139.193 25.6081 139.13 25.9551 139.003 26.1328C138.884 26.3105 138.677 26.3994 138.381 26.3994C138.169 26.3994 137.987 26.3444 137.835 26.2344C137.691 26.1328 137.551 25.9593 137.416 25.7139L132.3 16.9287C132.266 16.8695 132.236 16.8314 132.211 16.8145C132.186 16.7891 132.156 16.7764 132.122 16.7764C132.046 16.7764 131.995 16.7933 131.97 16.8271C131.944 16.861 131.932 16.9456 131.932 17.0811V26.0312Z" fill="black"/>
<defs>
<clipPath id="clip0_575_4">
<rect width="24" height="24" fill="white" transform="translate(0 5.03125)"/>
</clipPath>
</defs>
</svg>
